<?xml version="1.0" standalone="no"?>
<!DOCTYPE svg PUBLIC "-//W3C//DTD SVG 20010904//EN"
 "http://www.w3.org/TR/2001/REC-SVG-20010904/DTD/svg10.dtd">
<svg version="1.0" xmlns="http://www.w3.org/2000/svg"
 width="500.000000pt" height="500.000000pt" viewBox="0 0 500.000000 500.000000"
 preserveAspectRatio="xMidYMid meet">
<metadata>
Created by potrace 1.11, written by Peter Selinger 2001-2013
</metadata>
<g transform="translate(0.000000,500.000000) scale(0.100000,-0.100000)"
fill="#000000" stroke="none">
<path d="M3640 4591 c-19 -37 -12 -79 18 -98 301 -189 500 -364 677 -597 69
-91 85 -119 85 -147 -1 -41 -20 -69 -48 -69 -15 0 -45 32 -105 113 -162 216
-338 381 -562 529 -114 75 -347 198 -376 198 -8 0 -29 -9 -47 -20 -27 -16 -33
-26 -30 -48 3 -24 18 -35 136 -93 168 -85 279 -154 287 -180 4 -11 4 -33 0
-49 -10 -45 -52 -40 -141 15 -93 58 -298 156 -395 189 -206 69 -427 106 -640
106 -125 0 -131 -1 -154 -25 -35 -34 -34 -82 1 -95 14 -6 91 -10 171 -10 223
0 433 -37 620 -110 105 -41 106 -41 107 -92 1 -42 0 -43 -32 -46 -19 -2 -65 9
-110 27 -98 38 -266 80 -347 88 -58 5 -63 4 -83 -22 -29 -37 -29 -73 1 -84 12
-5 64 -17 116 -26 133 -23 290 -76 422 -143 l114 -57 3 -46 c2 -32 -2 -50 -13
-59 -14 -11 -29 -6 -107 34 -163 85 -402 165 -455 151 -19 -4 -23 -12 -23 -43
0 -52 22 -79 71 -87 46 -8 179 -52 249 -83 59 -25 72 -42 68 -89 -3 -33 -7
-38 -29 -41 -14 -2 -66 13 -115 34 -207 85 -447 115 -658 80 -138 -23 -150
-30 -154 -88 -3 -44 -1 -48 22 -54 14 -3 63 1 108 9 106 20 220 28 278 19 38
-6 48 -12 62 -41 29 -57 13 -71 -82 -71 -43 0 -90 -4 -103 -9 -59 -23 -87 -89
-48 -111 11 -5 61 -10 111 -10 97 0 213 -20 289 -49 51 -20 77 -57 67 -96 -9
-34 -40 -36 -126 -9 -43 13 -113 29 -156 34 -71 9 -82 8 -104 -8 -14 -11 -29
-31 -35 -47 -8 -23 -6 -30 14 -46 14 -12 39 -19 65 -19 69 0 175 -28 250 -65
77 -38 166 -108 166 -131 0 -16 -50 -44 -81 -44 -13 0 -50 18 -83 39 -84 54
-146 73 -254 79 -106 5 -127 -5 -138 -65 -10 -51 4 -58 109 -59 121 -1 176
-26 177 -81 0 -35 -33 -46 -116 -38 -65 6 -75 4 -93 -14 -24 -24 -28 -73 -8
-90 8 -6 29 -14 48 -17 47 -9 59 -21 59 -60 0 -27 -5 -37 -25 -46 -20 -9 -28
-8 -43 5 -23 21 -51 22 -80 1 -25 -17 -28 -50 -10 -100 15 -42 -1 -64 -48 -64
-39 0 -58 17 -74 67 -23 72 -88 116 -119 80 -34 -42 -11 -147 49 -222 36 -45
37 -59 8 -79 -37 -26 -74 -20 -102 17 -65 85 -101 220 -90 334 6 60 6 63 -25
93 -22 23 -38 30 -58 28 -36 -4 -45 -36 -46 -168 -1 -113 14 -183 59 -272 26
-52 30 -88 12 -106 -19 -19 -65 -14 -87 9 -26 28 -65 128 -81 204 -28 138 -62
165 -124 96 -15 -17 -18 -31 -13 -74 8 -77 52 -201 102 -289 52 -90 56 -115
19 -124 -43 -11 -89 19 -123 78 -49 87 -60 99 -89 96 -19 -2 -33 -14 -46 -39
-18 -32 -18 -40 -6 -69 21 -50 100 -167 163 -242 64 -75 72 -108 32 -126 -46
-21 -62 -14 -119 54 -156 183 -250 383 -282 599 -22 146 -33 179 -65 183 -15
2 -37 -6 -53 -19 -28 -22 -29 -24 -23 -103 3 -45 19 -132 35 -195 l30 -115
-29 -29 c-53 -53 -74 -30 -114 126 -24 96 -45 260 -45 351 0 37 -6 61 -17 75
-18 21 -18 21 -60 1 -53 -24 -58 -41 -49 -174 10 -140 40 -285 86 -421 22 -63
40 -123 40 -134 0 -24 -31 -32 -74 -20 -32 9 -37 16 -65 94 -36 100 -65 211
-81 315 -7 41 -18 85 -26 98 -20 31 -55 28 -89 -8 l-29 -30 22 -123 c40 -214
133 -457 245 -637 64 -101 60 -130 -14 -130 -35 0 -40 4 -74 58 -97 155 -192
374 -235 542 -42 164 -52 244 -57 450 -6 234 -12 257 -66 246 -53 -11 -64 -29
-70 -114 -2 -42 0 -144 5 -226 5 -83 7 -160 3 -173 -7 -30 -45 -31 -80 0 -24
21 -26 31 -36 162 -19 238 11 517 82 762 26 94 43 138 124 331 25 59 25 65 10
88 -18 28 -32 30 -80 10 -28 -12 -40 -27 -65 -82 -119 -264 -189 -558 -206
-866 -7 -120 -8 -127 -31 -137 -31 -14 -56 -14 -71 1 -18 18 -16 -122 3 -269
69 -526 301 -1005 669 -1382 206 -210 409 -357 671 -486 345 -170 675 -246
1070 -246 293 0 516 36 785 127 873 295 1504 1071 1625 1997 17 137 20 423 4
565 -32 302 -146 658 -290 915 -199 353 -451 624 -788 848 -140 93 -180 107
-201 70z m-3137 -1107 c11 -11 -5 -34 -23 -34 -22 0 -34 15 -25 30 7 11 38 14
48 4z m2467 -659 c0 -21 -5 -25 -29 -25 -31 0 -46 21 -28 39 6 6 21 11 34 11
18 0 23 -6 23 -25z m-236 -90 c7 -20 -3 -45 -19 -45 -19 0 -36 25 -29 44 8 20
40 21 48 1z m-189 -45 c10 -16 -15 -40 -41 -40 -19 0 -24 5 -24 25 0 21 5 25
29 25 17 0 33 -5 36 -10z m-1290 -290 c8 -13 -13 -40 -31 -40 -8 0 -14 10 -14
25 0 18 5 25 19 25 11 0 23 -5 26 -10z m1019 -249 c15 -17 15 -19 1 -25 -27
-10 -53 -7 -58 7 -13 37 28 50 57 18z m-1860 -37 c23 -9 20 -44 -3 -44 -22 0
-45 25 -36 40 7 11 17 13 39 4z m1441 -224 c8 -14 -13 -40 -32 -40 -7 0 -16 7
-20 16 -10 26 38 47 52 24z m-44 -296 c10 -13 10 -17 -2 -25 -20 -12 -35 -11
-48 4 -8 10 -7 17 1 25 16 16 33 15 49 -4z"/>
<path d="M3189 4531 c-20 -16 -21 -21 -10 -35 7 -9 17 -16 22 -16 18 0 48 40
43 55 -8 20 -27 19 -55 -4z"/>
<path d="M4341 3772 c-12 -23 1 -45 25 -40 12 2 20 13 22 31 3 22 -1 27 -17
27 -11 0 -25 -8 -30 -18z"/>
<path d="M3031 3681 c-7 -5 -11 -19 -9 -32 4 -33 52 -35 56 -2 4 25 -27 46
-47 34z"/>
<path d="M2054 3585 c-18 -27 -12 -45 16 -45 26 0 45 36 29 56 -16 20 -26 18
-45 -11z"/>
<path d="M2283 3404 c-7 -18 6 -45 25 -52 15 -5 33 33 26 52 -8 21 -43 21 -51
0z"/>
<path d="M2313 2918 c-19 -24 -22 -47 -8 -58 10 -8 20 -5 41 13 24 21 26 27
15 41 -16 19 -35 21 -48 4z"/>
<path d="M1976 2734 c-20 -20 -20 -27 2 -47 40 -36 76 -5 47 39 -18 28 -28 30
-49 8z"/>
<path d="M2182 2578 c-17 -17 -15 -45 4 -52 25 -9 56 12 52 37 -3 25 -37 34
-56 15z"/>
<path d="M2312 2437 c-17 -20 8 -62 38 -62 31 0 38 29 14 56 -20 22 -37 24
-52 6z"/>
</g>
</svg>
